<svg width="21" height="29" viewBox="0 0 21 29" fill="none" xmlns="http://www.w3.org/2000/svg">
<path d="M17.4114 0.825391L1.18914 10.2758C0.505698 10.6739 0.105247 11.5644 0.143961 12.5994C0.18274 13.6345 0.652897 14.6057 1.37098 15.1338L7.04222 19.3048L11.6627 12.2824C11.8753 11.9593 12.2679 11.9583 12.5396 12.2804C12.8112 12.6024 12.859 13.1255 12.6464 13.4487L8.02588 20.4711L11.8097 27.5105C12.2888 28.4019 13.0648 28.9083 13.8347 28.832C14.6062 28.7556 15.2138 28.1106 15.4234 27.1527L20.4058 4.37567C20.6327 3.33865 20.3588 2.20272 19.6912 1.41114C19.0236 0.619554 18.15 0.39503 17.4114 0.825391Z" fill="white"/>
</svg>
